#!OML:ASF F:\VICON\USERDATA\INSTALL\rory3\rory3.ASF
:FULLY-SPECIFIED
:DEGREES
319
root 6.29426 17.8653 8.39632 -182.571 -13.448 178.954
lowerback 12.1588 1.63946 1.99601
upperback 0.130619 2.43214 0.587408
thorax -6.62975 1.10454 -0.931118
lowerneck -19.7035 -2.73321 -12.6659
upperneck 35.1497 -4.43361 7.23103
head 16.3598 -3.32384 4.30844
rclavicle -8.62228e-014 -7.95139e-016
rhumerus -34.3444 -18.4538 -74.1572
rradius 32.7289
rwrist 5.80396
rhand -17.09 7.89135
rfingers 7.12502
rthumb 9.1485 -21.8902
lclavicle -8.62228e-014 -7.95139e-016
lhumerus -34.6517 12.6826 78.8981
lradius 29.0133
lwrist -9.27024
lhand -20.2596 21.9718
lfingers 7.12502
lthumb 6.0892 51.8643
rfemur -0.229823 -4.21247 18.817
rtibia 28.3625
rfoot -20.9186 5.51469
rtoes -1.46598
lfemur -8.40727 -5.37026 -9.31637
ltibia 33.7891
lfoot -15.1905 2.54017
ltoes -7.57056
320
root 6.2318 17.8758 8.40501 -182.596 -13.1604 178.871
lowerback 12.2498 1.59014 1.98098
upperback 0.125947 2.3634 0.540502
thorax -6.68642 1.06966 -0.963155
lowerneck -19.7075 -2.68141 -12.6082
upperneck 35.0942 -4.32824 7.13464
head 16.3125 -3.28222 4.27342
rclavicle 4.27387e-015 2.3059e-014
rhumerus -34.1198 -17.8173 -74.56
rradius 32.961
rwrist 5.74587
rhand -17.4471 7.67625
rfingers 7.12502
rthumb 8.80394 -22.1201
lclavicle 4.27387e-015 2.3059e-014
lhumerus -34.5069 13.1896 78.5693
lradius 28.5495
lwrist -9.50195
lhand -20.2406 21.9573
lfingers 7.12502
lthumb 6.10755 51.8492
rfemur 0.0499692 -4.03612 18.4956
rtibia 27.9029
rfoot -20.8653 5.62223
rtoes -1.53217
lfemur -8.24604 -5.67496 -8.77005
ltibia 33.3598
lfoot -14.596 2.27991
ltoes -5.69227
321
root 6.17054 17.8834 8.4161 -182.562 -12.8934 178.894
lowerback 12.2528 1.56608 2.07393
upperback 0.119689 2.34216 0.498305
thorax -6.68981 1.0556 -1.05637
lowerneck -19.6335 -2.683 -12.5604
upperneck 34.9151 -4.30545 7.08094
head 16.1982 -3.26098 4.23995
rclavicle 1.38652e-014 -1.27222e-014
rhumerus -33.9619 -17.4312 -74.8835
rradius 33.2865
rwrist 5.74002
rhand -17.5639 8.05712
rfingers 7.12502
rthumb 8.69121 -21.744
lclavicle 1.38652e-014 -1.27222e-014
lhumerus -34.5709 13.0765 78.4666
lradius 28.6652
lwrist -9.34967
lhand -20.1357 22.1254
lfingers 7.12502
lthumb 6.20885 52.0144
rfemur 0.230477 -3.95475 18.2787
rtibia 27.4399
rfoot -20.7083 5.76372
rtoes -2.36736
lfemur -8.1984 -5.87665 -8.09047
ltibia 32.9248
lfoot -13.8188 1.90598
ltoes -4.65366
322
root 6.10932 17.8927 8.42479 -182.52 -12.5899 178.838
lowerback 12.2595 1.57299 2.05442
upperback 0.102621 2.34649 0.441766
thorax -6.70994 1.05759 -1.10633
lowerneck -19.4311 -2.66503 -12.2526
upperneck 34.6372 -4.25555 6.76426
head 15.986 -3.22509 4.04581
rclavicle -3.23025e-015 5.56597e-015
rhumerus -33.9217 -17.1198 -75.1219
rradius 33.7359
rwrist 5.68096
rhand -17.0147 7.88266
rfingers 7.12502
rthumb 9.22119 -21.8957
lclavicle -3.23025e-015 5.56597e-015
lhumerus -34.7513 12.8632 78.3684
lradius 28.9405
lwrist -9.12802
lhand -20.1985 22.1494
lfingers 7.12502
lthumb 6.14821 52.0402
rfemur 0.409407 -3.72934 18.0164
rtibia 27.0044
rfoot -20.6107 5.72661
rtoes -3.40531
lfemur -8.08817 -6.04836 -7.49922
ltibia 32.448
lfoot -12.8604 1.48378
ltoes -3.74405
323
root 6.04549 17.9015 8.43146 -182.514 -12.2473 178.688
lowerback 12.2867 1.55848 1.89853
upperback 0.116727 2.30272 0.406781
thorax -6.71626 1.04059 -1.04842
lowerneck -19.3315 -2.61893 -12.1022
upperneck 34.4102 -4.14269 6.57929
head 15.8259 -3.16789 3.95352
rclavicle 5.98839e-015 3.37934e-014
rhumerus -33.8348 -16.6693 -75.3494
rradius 34.2404
rwrist 5.38486
rhand -16.2222 7.06036
rfingers 7.12502
rthumb 9.98578 -22.6828
lclavicle 5.98839e-015 3.37934e-014
lhumerus -35.0858 12.7944 78.2727
lradius 29.4846
lwrist -8.83709
lhand -20.3171 22.2126
lfingers 7.12502
lthumb 6.03366 52.1066
rfemur 0.650055 -3.33372 17.6631
rtibia 26.5683
rfoot -20.491 5.68841
rtoes -3.23682
lfemur -7.87332 -6.28476 -7.03416
ltibia 31.9471
lfoot -11.8224 0.97362
ltoes -2.89796
324
root 5.97713 17.9106 8.43861 -182.51 -11.9238 178.568
lowerback 12.2864 1.54441 1.78592
upperback 0.148921 2.26555 0.39897
thorax -6.68688 1.02598 -0.986084
lowerneck -19.3611 -2.58086 -12.0517
upperneck 34.3243 -4.02882 6.44736
head 15.7713 -3.12385 3.90637
rclavicle 2.30342e-014 3.18055e-015
rhumerus -33.6984 -16.2807 -75.5234
rradius 34.6383
rwrist 5.15643
rhand -15.543 7.65396
rfingers 7.12502
rthumb 10.641 -22.0566
lclavicle 2.30342e-014 3.18055e-015
lhumerus -35.2376 12.9489 78.2131
lradius 29.8123
lwrist -8.79475
lhand -20.4684 22.5377
lfingers 7.12502
lthumb 5.88758 52.4359
rfemur 0.864301 -3.15781 17.2744
rtibia 26.1371
rfoot -20.3882 5.88896
rtoes -2.54648
lfemur -7.66323 -6.59439 -6.57416
ltibia 31.3958
lfoot -10.5678 0.393195
ltoes -2.5844
325
root 5.90646 17.9218 8.44613 -182.506 -11.552 178.553
lowerback 12.334 1.54969 1.84481
upperback 0.145321 2.28088 0.390391
thorax -6.71444 1.03071 -1.03252
lowerneck -19.4445 -2.60849 -12.0476
upperneck 34.3281 -4.01903 6.34042
head 15.7897 -3.13241 3.86024
rclavicle 1.83379e-014 -2.10712e-014
rhumerus -33.6058 -15.8716 -75.6725
rradius 34.8536
rwrist 5.08014
rhand -15.4855 8.29305
rfingers 7.12502
rthumb 10.6964 -21.4147
lclavicle 1.83379e-014 -2.10712e-014
lhumerus -35.2542 12.9339 78.1797
lradius 29.8513
lwrist -8.6984
lhand -20.5151 22.8724
lfingers 7.12502
lthumb 5.84251 52.7718
rfemur 1.03594 -2.90078 17.0007
rtibia 25.726
rfoot -20.211 6.10215
rtoes -2.19982
lfemur -7.44751 -6.96684 -6.00792
ltibia 30.7944
lfoot -9.05281 -0.337071
ltoes -1.38928
326
root 5.83606 17.9298 8.45244 -182.576 -11.1298 178.526
lowerback 12.4284 1.55969 1.87683
upperback 0.193548 2.29503 0.367043
thorax -6.71355 1.03493 -1.07962
lowerneck -19.645 -2.64019 -12.0182
upperneck 34.3588 -4.00076 6.22815
head 15.8472 -3.13192 3.8101
rclavicle 5.26779e-015 -5.96354e-015
rhumerus -33.4111 -15.409 -75.9142
rradius 34.9964
rwrist 4.9932
rhand -15.8264 8.06249
rfingers 7.12502
rthumb 10.3677 -21.6619
lclavicle 5.26779e-015 -5.96354e-015
lhumerus -35.2297 12.9253 78.0931
lradius 29.9006
lwrist -8.61536
lhand -20.4943 22.9933
lfingers 7.12502
lthumb 5.86256 52.8922
rfemur 1.25855 -2.56367 16.7254
rtibia 25.361
rfoot -20.0816 6.27259
rtoes -2.56276
lfemur -7.08901 -7.32543 -5.47039
ltibia 30.1628
lfoot -7.25656 -1.10078
ltoes 0.136223
327
root 5.76398 17.9371 8.45708 -182.595 -10.8802 178.385
lowerback 12.5429 1.5466 1.73978
upperback 0.162267 2.26034 0.347961
thorax -6.81678 1.02076 -1.02076
lowerneck -19.6912 -2.64611 -12.0945
upperneck 34.3892 -4.00016 6.26924
head 15.8763 -3.13981 3.84173
rclavicle -3.0091e-014 1.55052e-014
rhumerus -33.3251 -15.135 -76.0091
rradius 35.1231
rwrist 5.0369
rhand -15.7767 7.94484
rfingers 7.12502
rthumb 10.4156 -21.7772
lclavicle -3.0091e-014 1.55052e-014
lhumerus -35.3665 12.8323 78.0624
lradius 30.0218
lwrist -8.53797
lhand -20.4809 22.8636
lfingers 7.12502
lthumb 5.87552 52.7621
rfemur 1.43256 -2.26321 16.3361
rtibia 25.0872
rfoot -20.0203 6.28813
rtoes -3.15801
lfemur -6.79542 -7.83999 -5.07699
ltibia 29.4951
lfoot -5.35327 -1.68864
ltoes 0.786381
328
root 5.69083 17.9418 8.46428 -182.566 -10.6057 178.153
lowerback 12.5919 1.54776 1.55085
upperback 0.151276 2.23014 0.255404
thorax -6.86035 1.01056 -1.00844
lowerneck -19.6729 -2.61342 -12.0411
upperneck 34.3999 -3.98466 6.26714
head 15.8728 -3.13109 3.83382
rclavicle -4.8081e-014 -1.19271e-015
rhumerus -33.2098 -15.1056 -76.0944
rradius 35.1594
rwrist 5.15345
rhand -15.6607 7.56984
rfingers 7.12502
rthumb 10.5275 -22.1465
lclavicle -4.8081e-014 -1.19271e-015
lhumerus -35.4187 12.7826 77.9487
lradius 30.1317
lwrist -8.51876
lhand -20.2286 23.1081
lfingers 7.12502
lthumb 6.11915 52.9997
rfemur 1.52587 -2.04744 15.8248
rtibia 24.8802
rfoot -19.975 6.32444
rtoes -4.21011
lfemur -6.56144 -8.38139 -4.81231
ltibia 28.822
lfoot -3.60902 -2.27142
ltoes 1.09916
329
root 5.61613 17.9391 8.47227 -182.524 -10.2523 177.849
lowerback 12.5671 1.57305 1.2704
upperback 0.174178 2.21469 0.147048
thorax -6.82859 1.01109 -0.960821
lowerneck -19.6184 -2.62172 -12.0332
upperneck 34.3367 -4.0094 6.27162
head 15.8318 -3.13899 3.82745
rclavicle -3.58309e-014 -3.97569e-016
rhumerus -33.1083 -14.9257 -76.2447
rradius 35.2474
rwrist 5.07885
rhand -15.7489 7.07112
rfingers 7.12502
rthumb 10.4424 -22.6496
lclavicle -3.58309e-014 -3.97569e-016
lhumerus -35.4408 12.7782 77.8426
lradius 30.2221
lwrist -8.51566
lhand -20.4346 22.8609
lfingers 7.12502
lthumb 5.92022 52.7582
rfemur 1.58319 -1.83742 15.2177
rtibia 24.7228
rfoot -19.9191 6.38887
rtoes -5.37131
lfemur -6.27756 -8.88358 -4.64525
ltibia 28.15
lfoot -1.90341 -3.17817
ltoes 3.59138
